# xmcd
# 
# Track frame offsets:
#     150
#     4546
#     21967
#     40457
#     53550
#     74835
#     94588
#     108076
#     121729
#     137947
#     152051
#     169942
# 
# Disc length: 2532
# 
# Revision: 2
# Processed by: cddbd v1.5.2PL0 Copyright (c) Steve Scherf et al.
# Submitted via: fre:ac v1.0.31
# 
DISCID=9a09e20c
DTITLE=Vanessa Paradis - Les Sources
DYEAR=2018
DGENRE=Pop-Folk
TTITLE0=La Plage
TTITLE1=Les Sources
TTITLE2=Kiev
TTITLE3=Ces Mots Simples
TTITLE4=C'est Dire
TTITLE5=On Oubliera
TTITLE6=Mio Cuore
TTITLE7=Ce Que Le Vent Nous Souffle
TTITLE8=Dans Notre Monde
TTITLE9=Si Loin Si Proche
TTITLE10=A La Hauteur De Mes Bas
TTITLE11=Chéri
EXTD=
EXTT0=
EXTT1=
EXTT2=
EXTT3=
EXTT4=
EXTT5=
EXTT6=
EXTT7=
EXTT8=
EXTT9=
EXTT10=
EXTT11=
PLAYORDER=
